
<svg width="500" height="500" viewBox="0 0 500 500" fill="none" xmlns="http://www.w3.org/2000/svg">
<g clip-path="url(#clip0_101_5)">
<path d="M262.879 130.42L158.136 391H108.575L3.83206 130.42H49.0503C53.3082 130.42 56.7996 131.527 59.5246 133.741C62.4199 135.785 64.2934 138.255 65.145 141.15L122.881 292.899C125.266 300.053 127.395 307.121 129.268 314.103C131.141 321.086 132.759 328.154 134.122 335.307C135.484 328.154 137.102 321.171 138.976 314.359C141.02 307.376 143.234 300.223 145.618 292.899L204.376 141.15C205.398 138.084 207.272 135.53 209.997 133.486C212.722 131.442 216.043 130.42 219.96 130.42H262.879Z" fill="#FF8744"/>
<path d="M237.121 394.58L341.864 134H391.425L496.168 394.58H450.95C446.692 394.58 443.2 393.473 440.475 391.259C437.58 389.215 435.707 386.745 434.855 383.85L377.119 232.101C374.734 224.947 372.605 217.879 370.732 210.897C368.859 203.914 367.241 196.846 365.878 189.693C364.516 196.846 362.898 203.829 361.024 210.641C358.98 217.624 356.766 224.777 354.382 232.101L295.624 383.85C294.602 386.916 292.728 389.47 290.003 391.514C287.278 393.558 283.957 394.58 280.04 394.58H237.121Z" fill="#FF8744"/>
</g>
<defs>
<clipPath id="clip0_101_5">
<rect width="500" height="500" fill="white"/>
</clipPath>
</defs>
</svg>
